<svg width="142" height="50" viewBox="0 0 142 50" fill="none" xmlns="http://www.w3.org/2000/svg">
<path d="M11 6.85071V14.0718C12.6318 13.2075 14.2512 13.3127 15.858 13.1365V6C14.0954 6 12.6318 6.01515 11 6.85071Z" fill="#E36E1B"/>
<path d="M25.242 7.64967C23.708 7.09635 22.1623 6.61239 20.604 6.30225V13.3567C22.1615 13.6405 23.708 14.0973 25.242 14.6236V7.64967Z" fill="#E36E1B"/>
<path d="M20.6047 20.4102V13.3558C19.0347 13.0704 17.4529 12.9612 15.8586 13.1366V20.2731C17.4529 20.0706 19.0347 20.1519 20.6047 20.4102Z" fill="#E36E1B"/>
<path d="M11 21.2929V28.514C12.6318 27.5931 14.2512 27.6425 15.858 27.4097V20.2732C14.1932 20.4103 12.6318 20.4 11 21.2929Z" fill="#E36E1B"/>
<path d="M20.6047 20.4102V27.4646C22.1622 27.6942 23.7088 28.0976 25.2428 28.5712V21.5973C23.7088 21.0974 22.163 20.6669 20.6047 20.4102Z" fill="#E36E1B"/>
<path d="M15.8579 27.4095V34.5461C17.4522 34.2878 19.0339 34.3149 20.604 34.5182V27.4638C19.0339 27.2325 17.4522 27.1783 15.8579 27.4087V27.4095Z" fill="#E36E1B"/>
<path d="M46.784 24.3425C48.5911 22.8324 49.607 20.4055 49.607 17.91C49.607 14.0415 47.234 12.4573 42.2947 11.967V8.59523C41.2443 8.54102 40.1877 8.42461 39.1257 8.26037V11.6265C38.134 11.4814 37.1377 11.2949 36.1359 11.0764V7.68393C35.0511 7.43837 33.9609 7.15613 32.8644 6.85156C32.8644 7.99169 32.8644 9.13181 32.8644 10.2719C31.8407 9.99607 30.8115 9.70028 29.7768 9.39651V16.2915C28.2772 15.7358 26.7659 15.1458 25.2437 14.6235V21.5974C26.7659 22.0933 28.2772 22.657 29.7768 23.1864V30.0814C28.2772 29.5783 26.7659 29.0401 25.2437 28.5705V35.5444C26.7659 35.9877 28.2772 36.4988 29.7768 36.9763C30.8115 37.2084 31.8407 37.4332 32.8644 37.6373C32.8644 38.7774 32.8644 39.9175 32.8644 41.0577C33.9609 41.2674 35.0519 41.4547 36.1359 41.6062V38.2137C37.1377 38.362 38.134 38.48 39.1257 38.5558V41.9219C40.1877 41.9945 41.2443 42.0184 42.2947 41.9817V38.6379C47.7717 38.3373 50.6182 34.0025 50.6182 29.678C50.6182 26.4872 49.1594 24.9389 46.784 24.3409V24.3425ZM36.1453 16.6215C37.144 16.8249 38.1372 16.9963 39.1249 17.127C39.5663 17.1852 40.0069 17.2355 40.446 17.2761C40.5305 17.2841 40.6119 17.2929 40.6926 17.3032C40.7129 17.3056 40.7325 17.308 40.7528 17.3104C40.828 17.32 40.9015 17.3303 40.9735 17.3415C40.9782 17.3415 40.9837 17.3431 40.9884 17.3439C41.0674 17.3566 41.1434 17.3702 41.2185 17.3853C41.2318 17.3877 41.2443 17.3909 41.2576 17.3933C41.3289 17.4077 41.3993 17.4236 41.4674 17.4404C41.4697 17.4404 41.4729 17.4412 41.4752 17.442C41.5496 17.4603 41.6224 17.4802 41.6928 17.501C41.6975 17.5026 41.7022 17.5041 41.7069 17.5049C41.9213 17.5695 42.1178 17.6469 42.2947 17.737C43.1266 18.1579 43.5493 18.8795 43.5493 19.9438C43.5493 21.0282 43.1266 21.7999 42.2947 22.1914C42.117 22.2743 41.9205 22.3397 41.7061 22.3859C41.7014 22.3867 41.6975 22.3883 41.6928 22.3891C41.6224 22.4043 41.5496 22.417 41.4752 22.4282C41.4729 22.4282 41.4697 22.4282 41.4674 22.429C41.3993 22.4386 41.3289 22.4465 41.2576 22.4529C41.2443 22.4537 41.2318 22.4553 41.2185 22.4561C41.1434 22.4617 41.0674 22.4665 40.9884 22.4681C40.9837 22.4681 40.9782 22.4681 40.9735 22.4681C40.9015 22.4697 40.828 22.4689 40.7536 22.4681C40.7333 22.4681 40.7137 22.4673 40.6933 22.4665C40.6127 22.4633 40.5305 22.4593 40.4468 22.4529C40.0077 22.4178 39.5671 22.374 39.1257 22.3222C38.1372 22.205 37.144 22.0463 36.1461 21.8565V16.6231L36.1453 16.6215ZM42.2939 33.1238C42.2297 33.1342 42.1647 33.143 42.0982 33.1509C42.0786 33.1533 42.0591 33.1549 42.0395 33.1573C41.991 33.1621 41.9417 33.1669 41.8916 33.1709C41.8681 33.1725 41.8454 33.1741 41.8219 33.1757C41.7718 33.1789 41.721 33.1804 41.6701 33.182C41.6482 33.182 41.6263 33.1836 41.6044 33.1836C41.5316 33.1852 41.458 33.1852 41.3821 33.1836C40.6323 33.1685 39.8802 33.1238 39.1249 33.0553C38.1364 32.9652 37.1432 32.8344 36.1453 32.6718V27.1665C37.144 27.3427 38.1372 27.4878 39.1249 27.5914C39.8802 27.6704 40.6323 27.7254 41.3821 27.7517C41.4572 27.7541 41.5316 27.7581 41.6044 27.7621C41.6263 27.7637 41.6482 27.7653 41.6701 27.7661C41.721 27.7692 41.7718 27.7732 41.8219 27.7772C41.8454 27.7788 41.8689 27.7812 41.8924 27.7836C41.9425 27.7884 41.9918 27.7932 42.0403 27.7987C42.0599 27.8011 42.0794 27.8027 42.099 27.8051C42.1655 27.8131 42.2313 27.8219 42.2947 27.8322C43.8052 28.0603 44.5933 28.8177 44.5933 30.362C44.5933 31.8928 43.8052 32.8679 42.2947 33.1222L42.2939 33.1238Z" fill="#E36E1B"/>
<path fill-rule="evenodd" clip-rule="evenodd" d="M72.8962 10.9278C73.1717 10.6472 73.3095 10.3059 73.3095 9.90329C73.3095 9.48631 73.1717 9.13789 72.8962 8.85725C72.6215 8.5766 72.2999 8.43628 71.8905 8.43628C71.4812 8.43628 71.1392 8.5766 70.8637 8.85725C70.5882 9.1371 70.4504 9.50066 70.4504 9.90329C70.4504 10.3059 70.5882 10.6472 70.8637 10.9278C71.1392 11.2085 71.4953 11.3488 71.8905 11.3488C72.2858 11.3488 72.6208 11.2085 72.8962 10.9278ZM73.0763 41.3565V12.2114H70.6625L70.6837 41.3565H73.0763ZM63.4833 8.95459H57.7871V24.3566H64.6056C65.2552 24.3566 65.8618 24.2275 66.4269 23.9683C66.9912 23.71 67.4819 23.3608 67.8983 22.9223C68.3147 22.4838 68.6426 21.9807 68.8829 21.4122C69.1231 20.8446 69.2429 20.2514 69.2429 19.6327C69.2429 18.7844 69.0417 18.0038 68.6395 17.2918C68.2372 16.5799 67.6831 16.0082 66.9771 15.5769L66.8503 15.5123L66.9137 15.4477C66.97 15.376 67.0413 15.2611 67.1258 15.1025C67.4357 14.4702 67.5915 13.8228 67.5915 13.1611C67.5915 12.5854 67.4819 12.0425 67.2635 11.5322C67.0444 11.0212 66.7517 10.5755 66.3846 10.1944C66.0176 9.81407 65.5832 9.5119 65.0823 9.28865C64.5806 9.06621 64.0476 8.95459 63.4833 8.95459ZM64.0977 14.7788C63.8997 14.8649 63.6954 14.9079 63.4833 14.9079L60.1797 14.8864V11.3919H63.4622C63.9983 11.3919 64.4186 11.5753 64.7223 11.942C65.0259 12.3088 65.1778 12.7154 65.1778 13.1611C65.1778 13.4202 65.1285 13.657 65.0298 13.8731C64.9304 14.0891 64.7997 14.2725 64.6377 14.4232C64.4749 14.5739 64.2949 14.6927 64.0977 14.7788ZM64.6064 21.8978H60.1805V17.3692H64.6064C64.9312 17.3692 65.231 17.4306 65.5065 17.5526C65.7812 17.6745 66.0175 17.8404 66.2156 18.0485C66.4128 18.2566 66.5678 18.4981 66.6812 18.7708C66.7939 19.0443 66.8503 19.3313 66.8503 19.6335C66.8503 19.9357 66.7939 20.2235 66.6812 20.4962C66.5685 20.7688 66.4128 21.0104 66.2156 21.2185C66.0183 21.4266 65.782 21.5924 65.5065 21.7144C65.231 21.8364 64.9312 21.8978 64.6064 21.8978ZM80.7635 24.3565C80.1984 24.3565 79.6654 24.2417 79.1645 24.0113C78.6636 23.7816 78.2222 23.4683 77.8411 23.0728C77.4599 22.6774 77.1602 22.2205 76.941 21.7031C76.7219 21.1857 76.6131 20.6387 76.6131 20.0639V13.8945H74.8552V11.4356H76.6131V8.43701H79.0057V11.4356H81.4194V13.8945H79.0057V20.1069C79.0057 20.3373 79.0479 20.5598 79.1325 20.7759C79.217 20.9919 79.3367 21.1857 79.4925 21.3579C79.6474 21.5301 79.8314 21.6672 80.0427 21.7677C80.2548 21.8681 80.4872 21.9184 80.7416 21.9184H82.393V24.3557H80.7627L80.7635 24.3565ZM83.9609 8.43628V24.3566H86.3747V8.43628H83.9609ZM100.309 24.3565H97.9376V23.2347L97.7044 23.4069C97.1816 23.7952 96.6102 24.0973 95.9888 24.3126C95.3674 24.5287 94.7248 24.6363 94.0619 24.6363C93.1861 24.6363 92.3674 24.4673 91.6051 24.1292C90.8428 23.7912 90.1822 23.3311 89.625 22.7483C89.067 22.1655 88.6263 21.4902 88.3015 20.7208C87.9767 19.9514 87.8147 19.135 87.8147 18.2723C87.8147 17.4097 87.9767 16.5901 88.3015 15.8135C88.6263 15.0369 89.0709 14.3577 89.6359 13.7748C90.2002 13.1928 90.8639 12.736 91.6262 12.4051C92.3886 12.0742 93.2002 11.9092 94.0619 11.9092C94.8524 11.9235 95.5372 12.0383 96.1156 12.2544C96.694 12.4705 97.2379 12.7718 97.7459 13.1601L97.936 13.3323V12.8795H100.307V24.3557L100.309 24.3565ZM97.9368 18.2731C97.9368 17.6839 97.8312 17.1482 97.6191 16.6658C97.407 16.1842 97.1213 15.7705 96.7613 15.4252C96.4012 15.08 95.988 14.8105 95.5223 14.616C95.0566 14.4214 94.569 14.325 94.0611 14.325C93.5531 14.325 93.0413 14.4294 92.5678 14.6375C92.0943 14.8464 91.6787 15.1262 91.3187 15.4786C90.9586 15.831 90.6761 16.248 90.4718 16.7296C90.2668 17.2119 90.165 17.7254 90.165 18.2723C90.165 18.848 90.2746 19.3798 90.493 19.8685C90.7113 20.3573 91.0009 20.7782 91.3609 21.1306C91.7209 21.483 92.1342 21.7565 92.5999 21.9502C93.0656 22.1448 93.5453 22.2412 94.04 22.2412C94.6184 22.2412 95.1482 22.1296 95.628 21.9072C96.1077 21.6847 96.5171 21.3897 96.856 21.023C97.1949 20.6562 97.4594 20.2353 97.6504 19.7609C97.8413 19.2865 97.936 18.7898 97.936 18.2723L97.9368 18.2731ZM107.592 19.7402L104.098 11.6294H101.473L106.364 23.0195L104.67 27.5712L107.253 27.5497L108.355 24.5726L108.418 24.4434L113.162 11.6294H110.599L107.592 19.7402ZM115.662 18.8992L115.704 19.0714C115.817 19.5458 116.011 19.9596 116.286 20.312C116.562 20.6644 116.872 20.9626 117.218 21.2073C117.564 21.4521 117.931 21.6355 118.32 21.7575C118.708 21.8802 119.072 21.9408 119.41 21.9408C120.172 21.9408 120.832 21.7575 121.39 21.3907C121.947 21.024 122.431 20.5169 122.84 19.8695L125 20.8836C124.647 21.5454 124.241 22.0955 123.783 22.534C123.324 22.9725 122.843 23.3289 122.342 23.6016C121.842 23.8751 121.333 24.0688 120.818 24.1836C120.302 24.2992 119.798 24.3558 119.303 24.3558C118.485 24.3558 117.704 24.1868 116.963 23.8488C116.222 23.5107 115.569 23.0547 115.004 22.479C114.439 21.9042 113.991 21.2384 113.66 20.4834C113.328 19.7284 113.162 18.9343 113.162 18.0995C113.162 17.2225 113.321 16.3917 113.639 15.608C113.956 14.8242 114.394 14.1338 114.951 13.5374C115.508 12.941 116.169 12.4698 116.931 12.1246C117.693 11.7794 118.519 11.6072 119.409 11.6072C120.299 11.6072 121.1 11.7762 121.855 12.1143C122.61 12.4523 123.27 12.9092 123.835 13.484C124.399 14.0596 124.844 14.7318 125.169 15.5011C125.494 16.2705 125.656 17.0941 125.656 17.9711C125.656 18.0572 125.652 18.2119 125.645 18.4352C125.638 18.6584 125.627 18.8123 125.613 18.8992H115.662ZM122.925 16.3319C122.798 16.0441 122.635 15.7642 122.438 15.4908C122.24 15.2181 121.997 14.9693 121.707 14.7461C121.417 14.5237 121.082 14.3435 120.701 14.2071C120.32 14.0708 119.89 14.0022 119.41 14.0022C119.057 14.0022 118.704 14.0525 118.351 14.1529C117.998 14.2534 117.666 14.4049 117.355 14.6058C117.045 14.8075 116.762 15.0555 116.509 15.3497C116.254 15.6447 116.043 15.9859 115.873 16.3742L115.852 16.4818H122.988L122.925 16.3311V16.3319ZM129.511 12.5351V11.6294H127.14V24.3565H129.512V17.0223C129.512 16.6053 129.586 16.217 129.734 15.8574C129.882 15.4978 130.083 15.1813 130.337 14.9078C130.591 14.6344 130.895 14.4191 131.248 14.2604C131.601 14.1018 131.982 14.0229 132.391 14.0229C132.447 14.0229 132.55 14.0268 132.698 14.034C132.846 14.042 132.969 14.0595 133.068 14.0882L134 11.8662C133.732 11.7944 133.457 11.737 133.174 11.694C132.892 11.6509 132.61 11.6294 132.328 11.6294C131.848 11.6294 131.392 11.698 130.962 11.8343C130.531 11.9714 130.125 12.1548 129.744 12.3844L129.511 12.5351Z" fill="#E36E1B"/>
<path d="M100.263 39.4331L102.053 39.1602C102.129 39.5072 102.284 39.7716 102.516 39.9536C102.749 40.1313 103.075 40.2202 103.494 40.2202C103.955 40.2202 104.302 40.1356 104.535 39.9663C104.691 39.8478 104.77 39.6891 104.77 39.4902C104.77 39.3548 104.727 39.2427 104.643 39.1538C104.554 39.0692 104.355 38.9909 104.046 38.9189C102.607 38.6016 101.695 38.3117 101.31 38.0493C100.777 37.6854 100.51 37.1797 100.51 36.5322C100.51 35.9482 100.741 35.4574 101.202 35.0596C101.664 34.6618 102.379 34.4629 103.348 34.4629C104.27 34.4629 104.956 34.6131 105.405 34.9136C105.853 35.214 106.162 35.6584 106.331 36.2466L104.649 36.5576C104.577 36.2952 104.44 36.0942 104.237 35.9546C104.038 35.8149 103.752 35.7451 103.38 35.7451C102.91 35.7451 102.573 35.8107 102.37 35.9419C102.235 36.035 102.167 36.1556 102.167 36.3037C102.167 36.4307 102.226 36.5386 102.345 36.6274C102.506 36.7459 103.06 36.9131 104.008 37.1289C104.96 37.3447 105.625 37.6092 106.001 37.9224C106.374 38.2397 106.56 38.682 106.56 39.249C106.56 39.8669 106.302 40.3979 105.785 40.8423C105.269 41.2866 104.505 41.5088 103.494 41.5088C102.576 41.5088 101.848 41.3226 101.31 40.9502C100.777 40.5778 100.428 40.0721 100.263 39.4331Z" fill="#E36E1B"/>
<path d="M99.533 36.6084L97.7747 36.9258C97.7154 36.5745 97.58 36.3101 97.3684 36.1323C97.1611 35.9546 96.8902 35.8657 96.5559 35.8657C96.1116 35.8657 95.7561 36.0202 95.4895 36.3291C95.2271 36.6338 95.0959 37.1458 95.0959 37.8652C95.0959 38.665 95.2292 39.23 95.4958 39.5601C95.7667 39.8901 96.1285 40.0552 96.5813 40.0552C96.9198 40.0552 97.197 39.96 97.4128 39.7695C97.6287 39.5749 97.781 39.2427 97.8699 38.7729L99.6218 39.0713C99.4399 39.8753 99.0907 40.4826 98.5745 40.8931C98.0582 41.3035 97.3663 41.5088 96.4988 41.5088C95.5128 41.5088 94.7257 41.1978 94.1375 40.5757C93.5535 39.9536 93.2615 39.0924 93.2615 37.9922C93.2615 36.8792 93.5556 36.0138 94.1438 35.396C94.732 34.7739 95.5276 34.4629 96.5305 34.4629C97.3515 34.4629 98.0032 34.6406 98.4856 34.9961C98.9722 35.3473 99.3214 35.8848 99.533 36.6084Z" fill="#E36E1B"/>
<path d="M85.2952 37.8906C85.2952 37.2982 85.4412 36.7248 85.7332 36.1704C86.0251 35.616 86.4377 35.1929 86.9709 34.9009C87.5084 34.6089 88.1072 34.4629 88.7673 34.4629C89.7872 34.4629 90.623 34.7951 91.2747 35.4595C91.9264 36.1196 92.2522 36.9554 92.2522 37.9668C92.2522 38.9867 91.9221 39.833 91.262 40.5059C90.606 41.1745 89.7787 41.5088 88.78 41.5088C88.1622 41.5088 87.5719 41.3691 87.009 41.0898C86.4504 40.8105 86.0251 40.4022 85.7332 39.8647C85.4412 39.3231 85.2952 38.665 85.2952 37.8906ZM87.1233 37.9858C87.1233 38.6545 87.282 39.1665 87.5994 39.522C87.9167 39.8774 88.3082 40.0552 88.7737 40.0552C89.2392 40.0552 89.6285 39.8774 89.9417 39.522C90.259 39.1665 90.4177 38.6502 90.4177 37.9731C90.4177 37.313 90.259 36.8052 89.9417 36.4497C89.6285 36.0942 89.2392 35.9165 88.7737 35.9165C88.3082 35.9165 87.9167 36.0942 87.5994 36.4497C87.282 36.8052 87.1233 37.3172 87.1233 37.9858Z" fill="#E36E1B"/>
<path d="M76.3196 32.0508H79.7537C80.5281 32.0508 81.1184 32.11 81.5247 32.2285C82.0706 32.3893 82.5382 32.675 82.9275 33.0854C83.3168 33.4959 83.613 33.9995 83.8162 34.5962C84.0193 35.1886 84.1208 35.9207 84.1208 36.7925C84.1208 37.5584 84.0256 38.2186 83.8352 38.7729C83.6025 39.45 83.2703 39.998 82.8386 40.417C82.5128 40.7344 82.0727 40.9819 81.5183 41.1597C81.1036 41.2909 80.5492 41.3564 79.8552 41.3564H76.3196V32.0508ZM78.1985 33.625V39.7886H79.6013C80.1261 39.7886 80.5048 39.759 80.7375 39.6997C81.0422 39.6235 81.294 39.4945 81.4929 39.3125C81.696 39.1305 81.8611 38.8322 81.988 38.4175C82.115 37.9985 82.1785 37.4294 82.1785 36.71C82.1785 35.9906 82.115 35.4383 81.988 35.0532C81.8611 34.6681 81.6833 34.3677 81.4548 34.1519C81.2263 33.936 80.9364 33.79 80.5852 33.7139C80.3228 33.6546 79.8087 33.625 79.0427 33.625H78.1985Z" fill="#E36E1B"/>
</svg>
